<?xml version="1.0" encoding="utf-8" standalone="no"?>
<!DOCTYPE svg PUBLIC "-//W3C//DTD SVG 1.1//EN"
  "http://www.w3.org/Graphics/SVG/1.1/DTD/svg11.dtd">
<!-- Created with matplotlib (http://matplotlib.org/) -->
<svg height="288pt" version="1.1" viewBox="0 0 288 288" width="288pt" xmlns="http://www.w3.org/2000/svg" xmlns:xlink="http://www.w3.org/1999/xlink">
 <defs>
  <style type="text/css">
*{stroke-linecap:butt;stroke-linejoin:round;}
  </style>
 </defs>
 <g id="figure_1">
  <g id="patch_1">
   <path d="M 0 288 
L 288 288 
L 288 0 
L 0 0 
z
" style="fill:#ffffff;"/>
  </g>
  <g id="axes_1">
   <g id="patch_2">
    <path d="M 44.55 246.2 
L 273.7 246.2 
L 273.7 14.3 
L 44.55 14.3 
z
" style="fill:#ffffff;"/>
   </g>
   <g id="patch_3">
    <path clip-path="url(#pfd1398797b)" d="M 44.55 245.182895 
L 60.770267 245.182895 
L 60.770267 243.148684 
L 44.55 243.148684 
z
" style="fill:#1f77b4;opacity:0.7;"/>
   </g>
   <g id="patch_4">
    <path clip-path="url(#pfd1398797b)" d="M 44.55 241.114474 
L 62.696122 241.114474 
L 62.696122 239.080263 
L 44.55 239.080263 
z
" style="fill:#1f77b4;opacity:0.7;"/>
   </g>
   <g id="patch_5">
    <path clip-path="url(#pfd1398797b)" d="M 44.55 237.046053 
L 63.439477 237.046053 
L 63.439477 235.011842 
L 44.55 235.011842 
z
" style="fill:#1f77b4;opacity:0.7;"/>
   </g>
   <g id="patch_6">
    <path clip-path="url(#pfd1398797b)" d="M 44.55 232.977632 
L 67.185543 232.977632 
L 67.185543 230.943421 
L 44.55 230.943421 
z
" style="fill:#1f77b4;opacity:0.7;"/>
   </g>
   <g id="patch_7">
    <path clip-path="url(#pfd1398797b)" d="M 44.55 228.909211 
L 70.411665 228.909211 
L 70.411665 226.875 
L 44.55 226.875 
z
" style="fill:#1f77b4;opacity:0.7;"/>
   </g>
   <g id="patch_8">
    <path clip-path="url(#pfd1398797b)" d="M 44.55 224.840789 
L 72.588163 224.840789 
L 72.588163 222.806579 
L 44.55 222.806579 
z
" style="fill:#1f77b4;opacity:0.7;"/>
   </g>
   <g id="patch_9">
    <path clip-path="url(#pfd1398797b)" d="M 44.55 220.772368 
L 77.845659 220.772368 
L 77.845659 218.738158 
L 44.55 218.738158 
z
" style="fill:#1f77b4;opacity:0.7;"/>
   </g>
   <g id="patch_10">
    <path clip-path="url(#pfd1398797b)" d="M 44.55 216.703947 
L 79.092428 216.703947 
L 79.092428 214.669737 
L 44.55 214.669737 
z
" style="fill:#1f77b4;opacity:0.7;"/>
   </g>
   <g id="patch_11">
    <path clip-path="url(#pfd1398797b)" d="M 44.55 212.635526 
L 83.398703 212.635526 
L 83.398703 210.601316 
L 44.55 210.601316 
z
" style="fill:#1f77b4;opacity:0.7;"/>
   </g>
   <g id="patch_12">
    <path clip-path="url(#pfd1398797b)" d="M 44.55 208.567105 
L 86.157965 208.567105 
L 86.157965 206.532895 
L 44.55 206.532895 
z
" style="fill:#1f77b4;opacity:0.7;"/>
   </g>
   <g id="patch_13">
    <path clip-path="url(#pfd1398797b)" d="M 44.55 204.498684 
L 91.158907 204.498684 
L 91.158907 202.464474 
L 44.55 202.464474 
z
" style="fill:#1f77b4;opacity:0.7;"/>
   </g>
   <g id="patch_14">
    <path clip-path="url(#pfd1398797b)" d="M 44.55 200.430263 
L 94.271321 200.430263 
L 94.271321 198.396053 
L 44.55 198.396053 
z
" style="fill:#1f77b4;opacity:0.7;"/>
   </g>
   <g id="patch_15">
    <path clip-path="url(#pfd1398797b)" d="M 44.55 196.361842 
L 97.421317 196.361842 
L 97.421317 194.327632 
L 44.55 194.327632 
z
" style="fill:#1f77b4;opacity:0.7;"/>
   </g>
   <g id="patch_16">
    <path clip-path="url(#pfd1398797b)" d="M 44.55 192.293421 
L 101.24386 192.293421 
L 101.24386 190.259211 
L 44.55 190.259211 
z
" style="fill:#1f77b4;opacity:0.7;"/>
   </g>
   <g id="patch_17">
    <path clip-path="url(#pfd1398797b)" d="M 44.55 188.225 
L 105.016527 188.225 
L 105.016527 186.190789 
L 44.55 186.190789 
z
" style="fill:#1f77b4;opacity:0.7;"/>
   </g>
   <g id="patch_18">
    <path clip-path="url(#pfd1398797b)" d="M 44.55 184.156579 
L 107.484664 184.156579 
L 107.484664 182.122368 
L 44.55 182.122368 
z
" style="fill:#1f77b4;opacity:0.7;"/>
   </g>
   <g id="patch_19">
    <path clip-path="url(#pfd1398797b)" d="M 44.55 180.088158 
L 113.988529 180.088158 
L 113.988529 178.053947 
L 44.55 178.053947 
z
" style="fill:#1f77b4;opacity:0.7;"/>
   </g>
   <g id="patch_20">
    <path clip-path="url(#pfd1398797b)" d="M 44.55 176.019737 
L 114.141546 176.019737 
L 114.141546 173.985526 
L 44.55 173.985526 
z
" style="fill:#1f77b4;opacity:0.7;"/>
   </g>
   <g id="patch_21">
    <path clip-path="url(#pfd1398797b)" d="M 44.55 171.951316 
L 126.624582 171.951316 
L 126.624582 169.917105 
L 44.55 169.917105 
z
" style="fill:#1f77b4;opacity:0.7;"/>
   </g>
   <g id="patch_22">
    <path clip-path="url(#pfd1398797b)" d="M 44.55 167.882895 
L 123.464698 167.882895 
L 123.464698 165.848684 
L 44.55 165.848684 
z
" style="fill:#1f77b4;opacity:0.7;"/>
   </g>
   <g id="patch_23">
    <path clip-path="url(#pfd1398797b)" d="M 44.55 163.814474 
L 125.405887 163.814474 
L 125.405887 161.780263 
L 44.55 161.780263 
z
" style="fill:#1f77b4;opacity:0.7;"/>
   </g>
   <g id="patch_24">
    <path clip-path="url(#pfd1398797b)" d="M 44.55 159.746053 
L 130.895519 159.746053 
L 130.895519 157.711842 
L 44.55 157.711842 
z
" style="fill:#1f77b4;opacity:0.7;"/>
   </g>
   <g id="patch_25">
    <path clip-path="url(#pfd1398797b)" d="M 44.55 155.677632 
L 133.979021 155.677632 
L 133.979021 153.643421 
L 44.55 153.643421 
z
" style="fill:#1f77b4;opacity:0.7;"/>
   </g>
   <g id="patch_26">
    <path clip-path="url(#pfd1398797b)" d="M 44.55 151.609211 
L 138.709275 151.609211 
L 138.709275 149.575 
L 44.55 149.575 
z
" style="fill:#1f77b4;opacity:0.7;"/>
   </g>
   <g id="patch_27">
    <path clip-path="url(#pfd1398797b)" d="M 44.55 147.540789 
L 139.712795 147.540789 
L 139.712795 145.506579 
L 44.55 145.506579 
z
" style="fill:#1f77b4;opacity:0.7;"/>
   </g>
   <g id="patch_28">
    <path clip-path="url(#pfd1398797b)" d="M 44.55 143.472368 
L 145.562184 143.472368 
L 145.562184 141.438158 
L 44.55 141.438158 
z
" style="fill:#1f77b4;opacity:0.7;"/>
   </g>
   <g id="patch_29">
    <path clip-path="url(#pfd1398797b)" d="M 44.55 139.403947 
L 146.950091 139.403947 
L 146.950091 137.369737 
L 44.55 137.369737 
z
" style="fill:#1f77b4;opacity:0.7;"/>
   </g>
   <g id="patch_30">
    <path clip-path="url(#pfd1398797b)" d="M 44.55 135.335526 
L 151.15486 135.335526 
L 151.15486 133.301316 
L 44.55 133.301316 
z
" style="fill:#1f77b4;opacity:0.7;"/>
   </g>
   <g id="patch_31">
    <path clip-path="url(#pfd1398797b)" d="M 44.55 131.267105 
L 150.759377 131.267105 
L 150.759377 129.232895 
L 44.55 129.232895 
z
" style="fill:#1f77b4;opacity:0.7;"/>
   </g>
   <g id="patch_32">
    <path clip-path="url(#pfd1398797b)" d="M 44.55 127.198684 
L 153.324497 127.198684 
L 153.324497 125.164474 
L 44.55 125.164474 
z
" style="fill:#1f77b4;opacity:0.7;"/>
   </g>
   <g id="patch_33">
    <path clip-path="url(#pfd1398797b)" d="M 44.55 123.130263 
L 161.570419 123.130263 
L 161.570419 121.096053 
L 44.55 121.096053 
z
" style="fill:#1f77b4;opacity:0.7;"/>
   </g>
   <g id="patch_34">
    <path clip-path="url(#pfd1398797b)" d="M 44.55 119.061842 
L 160.429243 119.061842 
L 160.429243 117.027632 
L 44.55 117.027632 
z
" style="fill:#1f77b4;opacity:0.7;"/>
   </g>
   <g id="patch_35">
    <path clip-path="url(#pfd1398797b)" d="M 44.55 114.993421 
L 164.481603 114.993421 
L 164.481603 112.959211 
L 44.55 112.959211 
z
" style="fill:#1f77b4;opacity:0.7;"/>
   </g>
   <g id="patch_36">
    <path clip-path="url(#pfd1398797b)" d="M 44.55 110.925 
L 165.334518 110.925 
L 165.334518 108.890789 
L 44.55 108.890789 
z
" style="fill:#1f77b4;opacity:0.7;"/>
   </g>
   <g id="patch_37">
    <path clip-path="url(#pfd1398797b)" d="M 44.55 106.856579 
L 168.18723 106.856579 
L 168.18723 104.822368 
L 44.55 104.822368 
z
" style="fill:#1f77b4;opacity:0.7;"/>
   </g>
   <g id="patch_38">
    <path clip-path="url(#pfd1398797b)" d="M 44.55 102.788158 
L 166.372582 102.788158 
L 166.372582 100.753947 
L 44.55 100.753947 
z
" style="fill:#1f77b4;opacity:0.7;"/>
   </g>
   <g id="patch_39">
    <path clip-path="url(#pfd1398797b)" d="M 44.55 98.719737 
L 171.337287 98.719737 
L 171.337287 96.685526 
L 44.55 96.685526 
z
" style="fill:#1f77b4;opacity:0.7;"/>
   </g>
   <g id="patch_40">
    <path clip-path="url(#pfd1398797b)" d="M 44.55 94.651316 
L 177.949444 94.651316 
L 177.949444 92.617105 
L 44.55 92.617105 
z
" style="fill:#1f77b4;opacity:0.7;"/>
   </g>
   <g id="patch_41">
    <path clip-path="url(#pfd1398797b)" d="M 44.55 90.582895 
L 179.397364 90.582895 
L 179.397364 88.548684 
L 44.55 88.548684 
z
" style="fill:#1f77b4;opacity:0.7;"/>
   </g>
   <g id="patch_42">
    <path clip-path="url(#pfd1398797b)" d="M 44.55 86.514474 
L 182.03558 86.514474 
L 182.03558 84.480263 
L 44.55 84.480263 
z
" style="fill:#1f77b4;opacity:0.7;"/>
   </g>
   <g id="patch_43">
    <path clip-path="url(#pfd1398797b)" d="M 44.55 82.446053 
L 179.269445 82.446053 
L 179.269445 80.411842 
L 44.55 80.411842 
z
" style="fill:#1f77b4;opacity:0.7;"/>
   </g>
   <g id="patch_44">
    <path clip-path="url(#pfd1398797b)" d="M 44.55 78.377632 
L 187.067399 78.377632 
L 187.067399 76.343421 
L 44.55 76.343421 
z
" style="fill:#1f77b4;opacity:0.7;"/>
   </g>
   <g id="patch_45">
    <path clip-path="url(#pfd1398797b)" d="M 44.55 74.309211 
L 200.452695 74.309211 
L 200.452695 72.275 
L 44.55 72.275 
z
" style="fill:#1f77b4;opacity:0.7;"/>
   </g>
   <g id="patch_46">
    <path clip-path="url(#pfd1398797b)" d="M 44.55 70.240789 
L 204.962085 70.240789 
L 204.962085 68.206579 
L 44.55 68.206579 
z
" style="fill:#1f77b4;opacity:0.7;"/>
   </g>
   <g id="patch_47">
    <path clip-path="url(#pfd1398797b)" d="M 44.55 66.172368 
L 208.79315 66.172368 
L 208.79315 64.138158 
L 44.55 64.138158 
z
" style="fill:#1f77b4;opacity:0.7;"/>
   </g>
   <g id="patch_48">
    <path clip-path="url(#pfd1398797b)" d="M 44.55 62.103947 
L 216.765269 62.103947 
L 216.765269 60.069737 
L 44.55 60.069737 
z
" style="fill:#1f77b4;opacity:0.7;"/>
   </g>
   <g id="patch_49">
    <path clip-path="url(#pfd1398797b)" d="M 44.55 58.035526 
L 223.755349 58.035526 
L 223.755349 56.001316 
L 44.55 56.001316 
z
" style="fill:#1f77b4;opacity:0.7;"/>
   </g>
   <g id="patch_50">
    <path clip-path="url(#pfd1398797b)" d="M 44.55 53.967105 
L 227.062709 53.967105 
L 227.062709 51.932895 
L 44.55 51.932895 
z
" style="fill:#1f77b4;opacity:0.7;"/>
   </g>
   <g id="patch_51">
    <path clip-path="url(#pfd1398797b)" d="M 44.55 49.898684 
L 228.942116 49.898684 
L 228.942116 47.864474 
L 44.55 47.864474 
z
" style="fill:#1f77b4;opacity:0.7;"/>
   </g>
   <g id="patch_52">
    <path clip-path="url(#pfd1398797b)" d="M 44.55 45.830263 
L 235.743172 45.830263 
L 235.743172 43.796053 
L 44.55 43.796053 
z
" style="fill:#1f77b4;opacity:0.7;"/>
   </g>
   <g id="patch_53">
    <path clip-path="url(#pfd1398797b)" d="M 44.55 41.761842 
L 240.296182 41.761842 
L 240.296182 39.727632 
L 44.55 39.727632 
z
" style="fill:#1f77b4;opacity:0.7;"/>
   </g>
   <g id="patch_54">
    <path clip-path="url(#pfd1398797b)" d="M 44.55 37.693421 
L 244.207387 37.693421 
L 244.207387 35.659211 
L 44.55 35.659211 
z
" style="fill:#1f77b4;opacity:0.7;"/>
   </g>
   <g id="patch_55">
    <path clip-path="url(#pfd1398797b)" d="M 44.55 33.625 
L 247.764664 33.625 
L 247.764664 31.590789 
L 44.55 31.590789 
z
" style="fill:#1f77b4;opacity:0.7;"/>
   </g>
   <g id="patch_56">
    <path clip-path="url(#pfd1398797b)" d="M 44.55 29.556579 
L 241.464785 29.556579 
L 241.464785 27.522368 
L 44.55 27.522368 
z
" style="fill:#1f77b4;opacity:0.7;"/>
   </g>
   <g id="patch_57">
    <path clip-path="url(#pfd1398797b)" d="M 44.55 25.488158 
L 251.147829 25.488158 
L 251.147829 23.453947 
L 44.55 23.453947 
z
" style="fill:#1f77b4;opacity:0.7;"/>
   </g>
   <g id="patch_58">
    <path clip-path="url(#pfd1398797b)" d="M 44.55 21.419737 
L 262.413118 21.419737 
L 262.413118 19.385526 
L 44.55 19.385526 
z
" style="fill:#1f77b4;opacity:0.7;"/>
   </g>
   <g id="matplotlib.axis_1">
    <g id="xtick_1">
     <g id="line2d_1">
      <defs>
       <path d="M 0 0 
L 0 3.5 
" id="mcda6793c01" style="stroke:#000000;stroke-width:0.8;"/>
      </defs>
      <g>
       <use style="stroke:#000000;stroke-width:0.8;" x="44.55" xlink:href="#mcda6793c01" y="246.2"/>
      </g>
     </g>
     <g id="text_1">
      <!-- 0 -->
      <defs>
       <path d="M 31.78125 66.40625 
Q 24.171875 66.40625 20.328125 58.90625 
Q 16.5 51.421875 16.5 36.375 
Q 16.5 21.390625 20.328125 13.890625 
Q 24.171875 6.390625 31.78125 6.390625 
Q 39.453125 6.390625 43.28125 13.890625 
Q 47.125 21.390625 47.125 36.375 
Q 47.125 51.421875 43.28125 58.90625 
Q 39.453125 66.40625 31.78125 66.40625 
z
M 31.78125 74.21875 
Q 44.046875 74.21875 50.515625 64.515625 
Q 56.984375 54.828125 56.984375 36.375 
Q 56.984375 17.96875 50.515625 8.265625 
Q 44.046875 -1.421875 31.78125 -1.421875 
Q 19.53125 -1.421875 13.0625 8.265625 
Q 6.59375 17.96875 6.59375 36.375 
Q 6.59375 54.828125 13.0625 64.515625 
Q 19.53125 74.21875 31.78125 74.21875 
z
" id="DejaVuSans-30"/>
      </defs>
      <g transform="translate(41.36875 260.798437)scale(0.1 -0.1)">
       <use xlink:href="#DejaVuSans-30"/>
      </g>
     </g>
    </g>
    <g id="xtick_2">
     <g id="line2d_2">
      <g>
       <use style="stroke:#000000;stroke-width:0.8;" x="78.248529" xlink:href="#mcda6793c01" y="246.2"/>
      </g>
     </g>
     <g id="text_2">
      <!-- 500 -->
      <defs>
       <path d="M 10.796875 72.90625 
L 49.515625 72.90625 
L 49.515625 64.59375 
L 19.828125 64.59375 
L 19.828125 46.734375 
Q 21.96875 47.46875 24.109375 47.828125 
Q 26.265625 48.1875 28.421875 48.1875 
Q 40.625 48.1875 47.75 41.5 
Q 54.890625 34.8125 54.890625 23.390625 
Q 54.890625 11.625 47.5625 5.09375 
Q 40.234375 -1.421875 26.90625 -1.421875 
Q 22.3125 -1.421875 17.546875 -0.640625 
Q 12.796875 0.140625 7.71875 1.703125 
L 7.71875 11.625 
Q 12.109375 9.234375 16.796875 8.0625 
Q 21.484375 6.890625 26.703125 6.890625 
Q 35.15625 6.890625 40.078125 11.328125 
Q 45.015625 15.765625 45.015625 23.390625 
Q 45.015625 31 40.078125 35.4375 
Q 35.15625 39.890625 26.703125 39.890625 
Q 22.75 39.890625 18.8125 39.015625 
Q 14.890625 38.140625 10.796875 36.28125 
z
" id="DejaVuSans-35"/>
      </defs>
      <g transform="translate(68.704779 260.798437)scale(0.1 -0.1)">
       <use xlink:href="#DejaVuSans-35"/>
       <use x="63.623047" xlink:href="#DejaVuSans-30"/>
       <use x="127.246094" xlink:href="#DejaVuSans-30"/>
      </g>
     </g>
    </g>
    <g id="xtick_3">
     <g id="line2d_3">
      <g>
       <use style="stroke:#000000;stroke-width:0.8;" x="111.947059" xlink:href="#mcda6793c01" y="246.2"/>
      </g>
     </g>
     <g id="text_3">
      <!-- 1000 -->
      <defs>
       <path d="M 12.40625 8.296875 
L 28.515625 8.296875 
L 28.515625 63.921875 
L 10.984375 60.40625 
L 10.984375 69.390625 
L 28.421875 72.90625 
L 38.28125 72.90625 
L 38.28125 8.296875 
L 54.390625 8.296875 
L 54.390625 0 
L 12.40625 0 
z
" id="DejaVuSans-31"/>
      </defs>
      <g transform="translate(99.222059 260.798437)scale(0.1 -0.1)">
       <use xlink:href="#DejaVuSans-31"/>
       <use x="63.623047" xlink:href="#DejaVuSans-30"/>
       <use x="127.246094" xlink:href="#DejaVuSans-30"/>
       <use x="190.869141" xlink:href="#DejaVuSans-30"/>
      </g>
     </g>
    </g>
    <g id="xtick_4">
     <g id="line2d_4">
      <g>
       <use style="stroke:#000000;stroke-width:0.8;" x="145.645588" xlink:href="#mcda6793c01" y="246.2"/>
      </g>
     </g>
     <g id="text_4">
      <!-- 1500 -->
      <g transform="translate(132.920588 260.798437)scale(0.1 -0.1)">
       <use xlink:href="#DejaVuSans-31"/>
       <use x="63.623047" xlink:href="#DejaVuSans-35"/>
       <use x="127.246094" xlink:href="#DejaVuSans-30"/>
       <use x="190.869141" xlink:href="#DejaVuSans-30"/>
      </g>
     </g>
    </g>
    <g id="xtick_5">
     <g id="line2d_5">
      <g>
       <use style="stroke:#000000;stroke-width:0.8;" x="179.344118" xlink:href="#mcda6793c01" y="246.2"/>
      </g>
     </g>
     <g id="text_5">
      <!-- 2000 -->
      <defs>
       <path d="M 19.1875 8.296875 
L 53.609375 8.296875 
L 53.609375 0 
L 7.328125 0 
L 7.328125 8.296875 
Q 12.9375 14.109375 22.625 23.890625 
Q 32.328125 33.6875 34.8125 36.53125 
Q 39.546875 41.84375 41.421875 45.53125 
Q 43.3125 49.21875 43.3125 52.78125 
Q 43.3125 58.59375 39.234375 62.25 
Q 35.15625 65.921875 28.609375 65.921875 
Q 23.96875 65.921875 18.8125 64.3125 
Q 13.671875 62.703125 7.8125 59.421875 
L 7.8125 69.390625 
Q 13.765625 71.78125 18.9375 73 
Q 24.125 74.21875 28.421875 74.21875 
Q 39.75 74.21875 46.484375 68.546875 
Q 53.21875 62.890625 53.21875 53.421875 
Q 53.21875 48.921875 51.53125 44.890625 
Q 49.859375 40.875 45.40625 35.40625 
Q 44.1875 33.984375 37.640625 27.21875 
Q 31.109375 20.453125 19.1875 8.296875 
z
" id="DejaVuSans-32"/>
      </defs>
      <g transform="translate(166.619118 260.798437)scale(0.1 -0.1)">
       <use xlink:href="#DejaVuSans-32"/>
       <use x="63.623047" xlink:href="#DejaVuSans-30"/>
       <use x="127.246094" xlink:href="#DejaVuSans-30"/>
       <use x="190.869141" xlink:href="#DejaVuSans-30"/>
      </g>
     </g>
    </g>
    <g id="xtick_6">
     <g id="line2d_6">
      <g>
       <use style="stroke:#000000;stroke-width:0.8;" x="213.042647" xlink:href="#mcda6793c01" y="246.2"/>
      </g>
     </g>
     <g id="text_6">
      <!-- 2500 -->
      <g transform="translate(200.317647 260.798437)scale(0.1 -0.1)">
       <use xlink:href="#DejaVuSans-32"/>
       <use x="63.623047" xlink:href="#DejaVuSans-35"/>
       <use x="127.246094" xlink:href="#DejaVuSans-30"/>
       <use x="190.869141" xlink:href="#DejaVuSans-30"/>
      </g>
     </g>
    </g>
    <g id="xtick_7">
     <g id="line2d_7">
      <g>
       <use style="stroke:#000000;stroke-width:0.8;" x="246.741176" xlink:href="#mcda6793c01" y="246.2"/>
      </g>
     </g>
     <g id="text_7">
      <!-- 3000 -->
      <defs>
       <path d="M 40.578125 39.3125 
Q 47.65625 37.796875 51.625 33 
Q 55.609375 28.21875 55.609375 21.1875 
Q 55.609375 10.40625 48.1875 4.484375 
Q 40.765625 -1.421875 27.09375 -1.421875 
Q 22.515625 -1.421875 17.65625 -0.515625 
Q 12.796875 0.390625 7.625 2.203125 
L 7.625 11.71875 
Q 11.71875 9.328125 16.59375 8.109375 
Q 21.484375 6.890625 26.8125 6.890625 
Q 36.078125 6.890625 40.9375 10.546875 
Q 45.796875 14.203125 45.796875 21.1875 
Q 45.796875 27.640625 41.28125 31.265625 
Q 36.765625 34.90625 28.71875 34.90625 
L 20.21875 34.90625 
L 20.21875 43.015625 
L 29.109375 43.015625 
Q 36.375 43.015625 40.234375 45.921875 
Q 44.09375 48.828125 44.09375 54.296875 
Q 44.09375 59.90625 40.109375 62.90625 
Q 36.140625 65.921875 28.71875 65.921875 
Q 24.65625 65.921875 20.015625 65.03125 
Q 15.375 64.15625 9.8125 62.3125 
L 9.8125 71.09375 
Q 15.4375 72.65625 20.34375 73.4375 
Q 25.25 74.21875 29.59375 74.21875 
Q 40.828125 74.21875 47.359375 69.109375 
Q 53.90625 64.015625 53.90625 55.328125 
Q 53.90625 49.265625 50.4375 45.09375 
Q 46.96875 40.921875 40.578125 39.3125 
z
" id="DejaVuSans-33"/>
      </defs>
      <g transform="translate(234.016176 260.798437)scale(0.1 -0.1)">
       <use xlink:href="#DejaVuSans-33"/>
       <use x="63.623047" xlink:href="#DejaVuSans-30"/>
       <use x="127.246094" xlink:href="#DejaVuSans-30"/>
       <use x="190.869141" xlink:href="#DejaVuSans-30"/>
      </g>
     </g>
    </g>
    <g id="text_8">
     <!-- Median time to open first file (ms) -->
     <defs>
      <path d="M 9.8125 72.90625 
L 24.515625 72.90625 
L 43.109375 23.296875 
L 61.8125 72.90625 
L 76.515625 72.90625 
L 76.515625 0 
L 66.890625 0 
L 66.890625 64.015625 
L 48.09375 14.015625 
L 38.1875 14.015625 
L 19.390625 64.015625 
L 19.390625 0 
L 9.8125 0 
z
" id="DejaVuSans-4d"/>
      <path d="M 56.203125 29.59375 
L 56.203125 25.203125 
L 14.890625 25.203125 
Q 15.484375 15.921875 20.484375 11.0625 
Q 25.484375 6.203125 34.421875 6.203125 
Q 39.59375 6.203125 44.453125 7.46875 
Q 49.3125 8.734375 54.109375 11.28125 
L 54.109375 2.78125 
Q 49.265625 0.734375 44.1875 -0.34375 
Q 39.109375 -1.421875 33.890625 -1.421875 
Q 20.796875 -1.421875 13.15625 6.1875 
Q 5.515625 13.8125 5.515625 26.8125 
Q 5.515625 40.234375 12.765625 48.109375 
Q 20.015625 56 32.328125 56 
Q 43.359375 56 49.78125 48.890625 
Q 56.203125 41.796875 56.203125 29.59375 
z
M 47.21875 32.234375 
Q 47.125 39.59375 43.09375 43.984375 
Q 39.0625 48.390625 32.421875 48.390625 
Q 24.90625 48.390625 20.390625 44.140625 
Q 15.875 39.890625 15.1875 32.171875 
z
" id="DejaVuSans-65"/>
      <path d="M 45.40625 46.390625 
L 45.40625 75.984375 
L 54.390625 75.984375 
L 54.390625 0 
L 45.40625 0 
L 45.40625 8.203125 
Q 42.578125 3.328125 38.25 0.953125 
Q 33.9375 -1.421875 27.875 -1.421875 
Q 17.96875 -1.421875 11.734375 6.484375 
Q 5.515625 14.40625 5.515625 27.296875 
Q 5.515625 40.1875 11.734375 48.09375 
Q 17.96875 56 27.875 56 
Q 33.9375 56 38.25 53.625 
Q 42.578125 51.265625 45.40625 46.390625 
z
M 14.796875 27.296875 
Q 14.796875 17.390625 18.875 11.75 
Q 22.953125 6.109375 30.078125 6.109375 
Q 37.203125 6.109375 41.296875 11.75 
Q 45.40625 17.390625 45.40625 27.296875 
Q 45.40625 37.203125 41.296875 42.84375 
Q 37.203125 48.484375 30.078125 48.484375 
Q 22.953125 48.484375 18.875 42.84375 
Q 14.796875 37.203125 14.796875 27.296875 
z
" id="DejaVuSans-64"/>
      <path d="M 9.421875 54.6875 
L 18.40625 54.6875 
L 18.40625 0 
L 9.421875 0 
z
M 9.421875 75.984375 
L 18.40625 75.984375 
L 18.40625 64.59375 
L 9.421875 64.59375 
z
" id="DejaVuSans-69"/>
      <path d="M 34.28125 27.484375 
Q 23.390625 27.484375 19.1875 25 
Q 14.984375 22.515625 14.984375 16.5 
Q 14.984375 11.71875 18.140625 8.90625 
Q 21.296875 6.109375 26.703125 6.109375 
Q 34.1875 6.109375 38.703125 11.40625 
Q 43.21875 16.703125 43.21875 25.484375 
L 43.21875 27.484375 
z
M 52.203125 31.203125 
L 52.203125 0 
L 43.21875 0 
L 43.21875 8.296875 
Q 40.140625 3.328125 35.546875 0.953125 
Q 30.953125 -1.421875 24.3125 -1.421875 
Q 15.921875 -1.421875 10.953125 3.296875 
Q 6 8.015625 6 15.921875 
Q 6 25.140625 12.171875 29.828125 
Q 18.359375 34.515625 30.609375 34.515625 
L 43.21875 34.515625 
L 43.21875 35.40625 
Q 43.21875 41.609375 39.140625 45 
Q 35.0625 48.390625 27.6875 48.390625 
Q 23 48.390625 18.546875 47.265625 
Q 14.109375 46.140625 10.015625 43.890625 
L 10.015625 52.203125 
Q 14.9375 54.109375 19.578125 55.046875 
Q 24.21875 56 28.609375 56 
Q 40.484375 56 46.34375 49.84375 
Q 52.203125 43.703125 52.203125 31.203125 
z
" id="DejaVuSans-61"/>
      <path d="M 54.890625 33.015625 
L 54.890625 0 
L 45.90625 0 
L 45.90625 32.71875 
Q 45.90625 40.484375 42.875 44.328125 
Q 39.84375 48.1875 33.796875 48.1875 
Q 26.515625 48.1875 22.3125 43.546875 
Q 18.109375 38.921875 18.109375 30.90625 
L 18.109375 0 
L 9.078125 0 
L 9.078125 54.6875 
L 18.109375 54.6875 
L 18.109375 46.1875 
Q 21.34375 51.125 25.703125 53.5625 
Q 30.078125 56 35.796875 56 
Q 45.21875 56 50.046875 50.171875 
Q 54.890625 44.34375 54.890625 33.015625 
z
" id="DejaVuSans-6e"/>
      <path id="DejaVuSans-20"/>
      <path d="M 18.3125 70.21875 
L 18.3125 54.6875 
L 36.8125 54.6875 
L 36.8125 47.703125 
L 18.3125 47.703125 
L 18.3125 18.015625 
Q 18.3125 11.328125 20.140625 9.421875 
Q 21.96875 7.515625 27.59375 7.515625 
L 36.8125 7.515625 
L 36.8125 0 
L 27.59375 0 
Q 17.1875 0 13.234375 3.875 
Q 9.28125 7.765625 9.28125 18.015625 
L 9.28125 47.703125 
L 2.6875 47.703125 
L 2.6875 54.6875 
L 9.28125 54.6875 
L 9.28125 70.21875 
z
" id="DejaVuSans-74"/>
      <path d="M 52 44.1875 
Q 55.375 50.25 60.0625 53.125 
Q 64.75 56 71.09375 56 
Q 79.640625 56 84.28125 50.015625 
Q 88.921875 44.046875 88.921875 33.015625 
L 88.921875 0 
L 79.890625 0 
L 79.890625 32.71875 
Q 79.890625 40.578125 77.09375 44.375 
Q 74.3125 48.1875 68.609375 48.1875 
Q 61.625 48.1875 57.5625 43.546875 
Q 53.515625 38.921875 53.515625 30.90625 
L 53.515625 0 
L 44.484375 0 
L 44.484375 32.71875 
Q 44.484375 40.625 41.703125 44.40625 
Q 38.921875 48.1875 33.109375 48.1875 
Q 26.21875 48.1875 22.15625 43.53125 
Q 18.109375 38.875 18.109375 30.90625 
L 18.109375 0 
L 9.078125 0 
L 9.078125 54.6875 
L 18.109375 54.6875 
L 18.109375 46.1875 
Q 21.1875 51.21875 25.484375 53.609375 
Q 29.78125 56 35.6875 56 
Q 41.65625 56 45.828125 52.96875 
Q 50 49.953125 52 44.1875 
z
" id="DejaVuSans-6d"/>
      <path d="M 30.609375 48.390625 
Q 23.390625 48.390625 19.1875 42.75 
Q 14.984375 37.109375 14.984375 27.296875 
Q 14.984375 17.484375 19.15625 11.84375 
Q 23.34375 6.203125 30.609375 6.203125 
Q 37.796875 6.203125 41.984375 11.859375 
Q 46.1875 17.53125 46.1875 27.296875 
Q 46.1875 37.015625 41.984375 42.703125 
Q 37.796875 48.390625 30.609375 48.390625 
z
M 30.609375 56 
Q 42.328125 56 49.015625 48.375 
Q 55.71875 40.765625 55.71875 27.296875 
Q 55.71875 13.875 49.015625 6.21875 
Q 42.328125 -1.421875 30.609375 -1.421875 
Q 18.84375 -1.421875 12.171875 6.21875 
Q 5.515625 13.875 5.515625 27.296875 
Q 5.515625 40.765625 12.171875 48.375 
Q 18.84375 56 30.609375 56 
z
" id="DejaVuSans-6f"/>
      <path d="M 18.109375 8.203125 
L 18.109375 -20.796875 
L 9.078125 -20.796875 
L 9.078125 54.6875 
L 18.109375 54.6875 
L 18.109375 46.390625 
Q 20.953125 51.265625 25.265625 53.625 
Q 29.59375 56 35.59375 56 
Q 45.5625 56 51.78125 48.09375 
Q 58.015625 40.1875 58.015625 27.296875 
Q 58.015625 14.40625 51.78125 6.484375 
Q 45.5625 -1.421875 35.59375 -1.421875 
Q 29.59375 -1.421875 25.265625 0.953125 
Q 20.953125 3.328125 18.109375 8.203125 
z
M 48.6875 27.296875 
Q 48.6875 37.203125 44.609375 42.84375 
Q 40.53125 48.484375 33.40625 48.484375 
Q 26.265625 48.484375 22.1875 42.84375 
Q 18.109375 37.203125 18.109375 27.296875 
Q 18.109375 17.390625 22.1875 11.75 
Q 26.265625 6.109375 33.40625 6.109375 
Q 40.53125 6.109375 44.609375 11.75 
Q 48.6875 17.390625 48.6875 27.296875 
z
" id="DejaVuSans-70"/>
      <path d="M 37.109375 75.984375 
L 37.109375 68.5 
L 28.515625 68.5 
Q 23.6875 68.5 21.796875 66.546875 
Q 19.921875 64.59375 19.921875 59.515625 
L 19.921875 54.6875 
L 34.71875 54.6875 
L 34.71875 47.703125 
L 19.921875 47.703125 
L 19.921875 0 
L 10.890625 0 
L 10.890625 47.703125 
L 2.296875 47.703125 
L 2.296875 54.6875 
L 10.890625 54.6875 
L 10.890625 58.5 
Q 10.890625 67.625 15.140625 71.796875 
Q 19.390625 75.984375 28.609375 75.984375 
z
" id="DejaVuSans-66"/>
      <path d="M 41.109375 46.296875 
Q 39.59375 47.171875 37.8125 47.578125 
Q 36.03125 48 33.890625 48 
Q 26.265625 48 22.1875 43.046875 
Q 18.109375 38.09375 18.109375 28.8125 
L 18.109375 0 
L 9.078125 0 
L 9.078125 54.6875 
L 18.109375 54.6875 
L 18.109375 46.1875 
Q 20.953125 51.171875 25.484375 53.578125 
Q 30.03125 56 36.53125 56 
Q 37.453125 56 38.578125 55.875 
Q 39.703125 55.765625 41.0625 55.515625 
z
" id="DejaVuSans-72"/>
      <path d="M 44.28125 53.078125 
L 44.28125 44.578125 
Q 40.484375 46.53125 36.375 47.5 
Q 32.28125 48.484375 27.875 48.484375 
Q 21.1875 48.484375 17.84375 46.4375 
Q 14.5 44.390625 14.5 40.28125 
Q 14.5 37.15625 16.890625 35.375 
Q 19.28125 33.59375 26.515625 31.984375 
L 29.59375 31.296875 
Q 39.15625 29.25 43.1875 25.515625 
Q 47.21875 21.78125 47.21875 15.09375 
Q 47.21875 7.46875 41.1875 3.015625 
Q 35.15625 -1.421875 24.609375 -1.421875 
Q 20.21875 -1.421875 15.453125 -0.5625 
Q 10.6875 0.296875 5.421875 2 
L 5.421875 11.28125 
Q 10.40625 8.6875 15.234375 7.390625 
Q 20.0625 6.109375 24.8125 6.109375 
Q 31.15625 6.109375 34.5625 8.28125 
Q 37.984375 10.453125 37.984375 14.40625 
Q 37.984375 18.0625 35.515625 20.015625 
Q 33.0625 21.96875 24.703125 23.78125 
L 21.578125 24.515625 
Q 13.234375 26.265625 9.515625 29.90625 
Q 5.8125 33.546875 5.8125 39.890625 
Q 5.8125 47.609375 11.28125 51.796875 
Q 16.75 56 26.8125 56 
Q 31.78125 56 36.171875 55.265625 
Q 40.578125 54.546875 44.28125 53.078125 
z
" id="DejaVuSans-73"/>
      <path d="M 9.421875 75.984375 
L 18.40625 75.984375 
L 18.40625 0 
L 9.421875 0 
z
" id="DejaVuSans-6c"/>
      <path d="M 31 75.875 
Q 24.46875 64.65625 21.28125 53.65625 
Q 18.109375 42.671875 18.109375 31.390625 
Q 18.109375 20.125 21.3125 9.0625 
Q 24.515625 -2 31 -13.1875 
L 23.1875 -13.1875 
Q 15.875 -1.703125 12.234375 9.375 
Q 8.59375 20.453125 8.59375 31.390625 
Q 8.59375 42.28125 12.203125 53.3125 
Q 15.828125 64.359375 23.1875 75.875 
z
" id="DejaVuSans-28"/>
      <path d="M 8.015625 75.875 
L 15.828125 75.875 
Q 23.140625 64.359375 26.78125 53.3125 
Q 30.421875 42.28125 30.421875 31.390625 
Q 30.421875 20.453125 26.78125 9.375 
Q 23.140625 -1.703125 15.828125 -13.1875 
L 8.015625 -13.1875 
Q 14.5 -2 17.703125 9.0625 
Q 20.90625 20.125 20.90625 31.390625 
Q 20.90625 42.671875 17.703125 53.65625 
Q 14.5 64.65625 8.015625 75.875 
z
" id="DejaVuSans-29"/>
     </defs>
     <g transform="translate(73.848438 274.476562)scale(0.1 -0.1)">
      <use xlink:href="#DejaVuSans-4d"/>
      <use x="86.279297" xlink:href="#DejaVuSans-65"/>
      <use x="147.802734" xlink:href="#DejaVuSans-64"/>
      <use x="211.279297" xlink:href="#DejaVuSans-69"/>
      <use x="239.0625" xlink:href="#DejaVuSans-61"/>
      <use x="300.341797" xlink:href="#DejaVuSans-6e"/>
      <use x="363.720703" xlink:href="#DejaVuSans-20"/>
      <use x="395.507812" xlink:href="#DejaVuSans-74"/>
      <use x="434.716797" xlink:href="#DejaVuSans-69"/>
      <use x="462.5" xlink:href="#DejaVuSans-6d"/>
      <use x="559.912109" xlink:href="#DejaVuSans-65"/>
      <use x="621.435547" xlink:href="#DejaVuSans-20"/>
      <use x="653.222656" xlink:href="#DejaVuSans-74"/>
      <use x="692.431641" xlink:href="#DejaVuSans-6f"/>
      <use x="753.613281" xlink:href="#DejaVuSans-20"/>
      <use x="785.400391" xlink:href="#DejaVuSans-6f"/>
      <use x="846.582031" xlink:href="#DejaVuSans-70"/>
      <use x="910.058594" xlink:href="#DejaVuSans-65"/>
      <use x="971.582031" xlink:href="#DejaVuSans-6e"/>
      <use x="1034.960938" xlink:href="#DejaVuSans-20"/>
      <use x="1066.748047" xlink:href="#DejaVuSans-66"/>
      <use x="1101.953125" xlink:href="#DejaVuSans-69"/>
      <use x="1129.736328" xlink:href="#DejaVuSans-72"/>
      <use x="1170.849609" xlink:href="#DejaVuSans-73"/>
      <use x="1222.949219" xlink:href="#DejaVuSans-74"/>
      <use x="1262.158203" xlink:href="#DejaVuSans-20"/>
      <use x="1293.945312" xlink:href="#DejaVuSans-66"/>
      <use x="1329.150391" xlink:href="#DejaVuSans-69"/>
      <use x="1356.933594" xlink:href="#DejaVuSans-6c"/>
      <use x="1384.716797" xlink:href="#DejaVuSans-65"/>
      <use x="1446.240234" xlink:href="#DejaVuSans-20"/>
      <use x="1478.027344" xlink:href="#DejaVuSans-28"/>
      <use x="1517.041016" xlink:href="#DejaVuSans-6d"/>
      <use x="1614.453125" xlink:href="#DejaVuSans-73"/>
      <use x="1666.552734" xlink:href="#DejaVuSans-29"/>
     </g>
    </g>
   </g>
   <g id="matplotlib.axis_2">
    <g id="ytick_1">
     <g id="line2d_8">
      <defs>
       <path d="M 0 0 
L -3.5 0 
" id="mc2bcb2d8b2" style="stroke:#000000;stroke-width:0.8;"/>
      </defs>
      <g>
       <use style="stroke:#000000;stroke-width:0.8;" x="44.55" xlink:href="#mc2bcb2d8b2" y="244.165789"/>
      </g>
     </g>
     <g id="text_9">
      <!-- 1 -->
      <g transform="translate(31.1875 247.965008)scale(0.1 -0.1)">
       <use xlink:href="#DejaVuSans-31"/>
      </g>
     </g>
    </g>
    <g id="ytick_2">
     <g id="line2d_9">
      <g>
       <use style="stroke:#000000;stroke-width:0.8;" x="44.55" xlink:href="#mc2bcb2d8b2" y="215.686842"/>
      </g>
     </g>
     <g id="text_10">
      <!-- 8 -->
      <defs>
       <path d="M 31.78125 34.625 
Q 24.75 34.625 20.71875 30.859375 
Q 16.703125 27.09375 16.703125 20.515625 
Q 16.703125 13.921875 20.71875 10.15625 
Q 24.75 6.390625 31.78125 6.390625 
Q 38.8125 6.390625 42.859375 10.171875 
Q 46.921875 13.96875 46.921875 20.515625 
Q 46.921875 27.09375 42.890625 30.859375 
Q 38.875 34.625 31.78125 34.625 
z
M 21.921875 38.8125 
Q 15.578125 40.375 12.03125 44.71875 
Q 8.5 49.078125 8.5 55.328125 
Q 8.5 64.0625 14.71875 69.140625 
Q 20.953125 74.21875 31.78125 74.21875 
Q 42.671875 74.21875 48.875 69.140625 
Q 55.078125 64.0625 55.078125 55.328125 
Q 55.078125 49.078125 51.53125 44.71875 
Q 48 40.375 41.703125 38.8125 
Q 48.828125 37.15625 52.796875 32.3125 
Q 56.78125 27.484375 56.78125 20.515625 
Q 56.78125 9.90625 50.3125 4.234375 
Q 43.84375 -1.421875 31.78125 -1.421875 
Q 19.734375 -1.421875 13.25 4.234375 
Q 6.78125 9.90625 6.78125 20.515625 
Q 6.78125 27.484375 10.78125 32.3125 
Q 14.796875 37.15625 21.921875 38.8125 
z
M 18.3125 54.390625 
Q 18.3125 48.734375 21.84375 45.5625 
Q 25.390625 42.390625 31.78125 42.390625 
Q 38.140625 42.390625 41.71875 45.5625 
Q 45.3125 48.734375 45.3125 54.390625 
Q 45.3125 60.0625 41.71875 63.234375 
Q 38.140625 66.40625 31.78125 66.40625 
Q 25.390625 66.40625 21.84375 63.234375 
Q 18.3125 60.0625 18.3125 54.390625 
z
" id="DejaVuSans-38"/>
      </defs>
      <g transform="translate(31.1875 219.486061)scale(0.1 -0.1)">
       <use xlink:href="#DejaVuSans-38"/>
      </g>
     </g>
    </g>
    <g id="ytick_3">
     <g id="line2d_10">
      <g>
       <use style="stroke:#000000;stroke-width:0.8;" x="44.55" xlink:href="#mc2bcb2d8b2" y="183.139474"/>
      </g>
     </g>
     <g id="text_11">
      <!-- 16 -->
      <defs>
       <path d="M 33.015625 40.375 
Q 26.375 40.375 22.484375 35.828125 
Q 18.609375 31.296875 18.609375 23.390625 
Q 18.609375 15.53125 22.484375 10.953125 
Q 26.375 6.390625 33.015625 6.390625 
Q 39.65625 6.390625 43.53125 10.953125 
Q 47.40625 15.53125 47.40625 23.390625 
Q 47.40625 31.296875 43.53125 35.828125 
Q 39.65625 40.375 33.015625 40.375 
z
M 52.59375 71.296875 
L 52.59375 62.3125 
Q 48.875 64.0625 45.09375 64.984375 
Q 41.3125 65.921875 37.59375 65.921875 
Q 27.828125 65.921875 22.671875 59.328125 
Q 17.53125 52.734375 16.796875 39.40625 
Q 19.671875 43.65625 24.015625 45.921875 
Q 28.375 48.1875 33.59375 48.1875 
Q 44.578125 48.1875 50.953125 41.515625 
Q 57.328125 34.859375 57.328125 23.390625 
Q 57.328125 12.15625 50.6875 5.359375 
Q 44.046875 -1.421875 33.015625 -1.421875 
Q 20.359375 -1.421875 13.671875 8.265625 
Q 6.984375 17.96875 6.984375 36.375 
Q 6.984375 53.65625 15.1875 63.9375 
Q 23.390625 74.21875 37.203125 74.21875 
Q 40.921875 74.21875 44.703125 73.484375 
Q 48.484375 72.75 52.59375 71.296875 
z
" id="DejaVuSans-36"/>
      </defs>
      <g transform="translate(24.825 186.938692)scale(0.1 -0.1)">
       <use xlink:href="#DejaVuSans-31"/>
       <use x="63.623047" xlink:href="#DejaVuSans-36"/>
      </g>
     </g>
    </g>
    <g id="ytick_4">
     <g id="line2d_11">
      <g>
       <use style="stroke:#000000;stroke-width:0.8;" x="44.55" xlink:href="#mc2bcb2d8b2" y="150.592105"/>
      </g>
     </g>
     <g id="text_12">
      <!-- 24 -->
      <defs>
       <path d="M 37.796875 64.3125 
L 12.890625 25.390625 
L 37.796875 25.390625 
z
M 35.203125 72.90625 
L 47.609375 72.90625 
L 47.609375 25.390625 
L 58.015625 25.390625 
L 58.015625 17.1875 
L 47.609375 17.1875 
L 47.609375 0 
L 37.796875 0 
L 37.796875 17.1875 
L 4.890625 17.1875 
L 4.890625 26.703125 
z
" id="DejaVuSans-34"/>
      </defs>
      <g transform="translate(24.825 154.391324)scale(0.1 -0.1)">
       <use xlink:href="#DejaVuSans-32"/>
       <use x="63.623047" xlink:href="#DejaVuSans-34"/>
      </g>
     </g>
    </g>
    <g id="ytick_5">
     <g id="line2d_12">
      <g>
       <use style="stroke:#000000;stroke-width:0.8;" x="44.55" xlink:href="#mc2bcb2d8b2" y="118.044737"/>
      </g>
     </g>
     <g id="text_13">
      <!-- 32 -->
      <g transform="translate(24.825 121.843956)scale(0.1 -0.1)">
       <use xlink:href="#DejaVuSans-33"/>
       <use x="63.623047" xlink:href="#DejaVuSans-32"/>
      </g>
     </g>
    </g>
    <g id="ytick_6">
     <g id="line2d_13">
      <g>
       <use style="stroke:#000000;stroke-width:0.8;" x="44.55" xlink:href="#mc2bcb2d8b2" y="20.402632"/>
      </g>
     </g>
     <g id="text_14">
      <!-- 56 -->
      <g transform="translate(24.825 24.20185)scale(0.1 -0.1)">
       <use xlink:href="#DejaVuSans-35"/>
       <use x="63.623047" xlink:href="#DejaVuSans-36"/>
      </g>
     </g>
    </g>
    <g id="text_15">
     <!-- Number of threads -->
     <defs>
      <path d="M 9.8125 72.90625 
L 23.09375 72.90625 
L 55.421875 11.921875 
L 55.421875 72.90625 
L 64.984375 72.90625 
L 64.984375 0 
L 51.703125 0 
L 19.390625 60.984375 
L 19.390625 0 
L 9.8125 0 
z
" id="DejaVuSans-4e"/>
      <path d="M 8.5 21.578125 
L 8.5 54.6875 
L 17.484375 54.6875 
L 17.484375 21.921875 
Q 17.484375 14.15625 20.5 10.265625 
Q 23.53125 6.390625 29.59375 6.390625 
Q 36.859375 6.390625 41.078125 11.03125 
Q 45.3125 15.671875 45.3125 23.6875 
L 45.3125 54.6875 
L 54.296875 54.6875 
L 54.296875 0 
L 45.3125 0 
L 45.3125 8.40625 
Q 42.046875 3.421875 37.71875 1 
Q 33.40625 -1.421875 27.6875 -1.421875 
Q 18.265625 -1.421875 13.375 4.4375 
Q 8.5 10.296875 8.5 21.578125 
z
M 31.109375 56 
z
" id="DejaVuSans-75"/>
      <path d="M 48.6875 27.296875 
Q 48.6875 37.203125 44.609375 42.84375 
Q 40.53125 48.484375 33.40625 48.484375 
Q 26.265625 48.484375 22.1875 42.84375 
Q 18.109375 37.203125 18.109375 27.296875 
Q 18.109375 17.390625 22.1875 11.75 
Q 26.265625 6.109375 33.40625 6.109375 
Q 40.53125 6.109375 44.609375 11.75 
Q 48.6875 17.390625 48.6875 27.296875 
z
M 18.109375 46.390625 
Q 20.953125 51.265625 25.265625 53.625 
Q 29.59375 56 35.59375 56 
Q 45.5625 56 51.78125 48.09375 
Q 58.015625 40.1875 58.015625 27.296875 
Q 58.015625 14.40625 51.78125 6.484375 
Q 45.5625 -1.421875 35.59375 -1.421875 
Q 29.59375 -1.421875 25.265625 0.953125 
Q 20.953125 3.328125 18.109375 8.203125 
L 18.109375 0 
L 9.078125 0 
L 9.078125 75.984375 
L 18.109375 75.984375 
z
" id="DejaVuSans-62"/>
      <path d="M 54.890625 33.015625 
L 54.890625 0 
L 45.90625 0 
L 45.90625 32.71875 
Q 45.90625 40.484375 42.875 44.328125 
Q 39.84375 48.1875 33.796875 48.1875 
Q 26.515625 48.1875 22.3125 43.546875 
Q 18.109375 38.921875 18.109375 30.90625 
L 18.109375 0 
L 9.078125 0 
L 9.078125 75.984375 
L 18.109375 75.984375 
L 18.109375 46.1875 
Q 21.34375 51.125 25.703125 53.5625 
Q 30.078125 56 35.796875 56 
Q 45.21875 56 50.046875 50.171875 
Q 54.890625 44.34375 54.890625 33.015625 
z
" id="DejaVuSans-68"/>
     </defs>
     <g transform="translate(18.745313 177.435937)rotate(-90)scale(0.1 -0.1)">
      <use xlink:href="#DejaVuSans-4e"/>
      <use x="74.804688" xlink:href="#DejaVuSans-75"/>
      <use x="138.183594" xlink:href="#DejaVuSans-6d"/>
      <use x="235.595703" xlink:href="#DejaVuSans-62"/>
      <use x="299.072266" xlink:href="#DejaVuSans-65"/>
      <use x="360.595703" xlink:href="#DejaVuSans-72"/>
      <use x="401.708984" xlink:href="#DejaVuSans-20"/>
      <use x="433.496094" xlink:href="#DejaVuSans-6f"/>
      <use x="494.677734" xlink:href="#DejaVuSans-66"/>
      <use x="529.882812" xlink:href="#DejaVuSans-20"/>
      <use x="561.669922" xlink:href="#DejaVuSans-74"/>
      <use x="600.878906" xlink:href="#DejaVuSans-68"/>
      <use x="664.257812" xlink:href="#DejaVuSans-72"/>
      <use x="705.339844" xlink:href="#DejaVuSans-65"/>
      <use x="766.863281" xlink:href="#DejaVuSans-61"/>
      <use x="828.142578" xlink:href="#DejaVuSans-64"/>
      <use x="891.619141" xlink:href="#DejaVuSans-73"/>
     </g>
    </g>
   </g>
   <g id="patch_59">
    <path d="M 44.55 246.2 
L 44.55 14.3 
" style="fill:none;stroke:#000000;stroke-linecap:square;stroke-linejoin:miter;stroke-width:0.8;"/>
   </g>
   <g id="patch_60">
    <path d="M 273.7 246.2 
L 273.7 14.3 
" style="fill:none;stroke:#000000;stroke-linecap:square;stroke-linejoin:miter;stroke-width:0.8;"/>
   </g>
   <g id="patch_61">
    <path d="M 44.55 246.2 
L 273.7 246.2 
" style="fill:none;stroke:#000000;stroke-linecap:square;stroke-linejoin:miter;stroke-width:0.8;"/>
   </g>
   <g id="patch_62">
    <path d="M 44.55 14.3 
L 273.7 14.3 
" style="fill:none;stroke:#000000;stroke-linecap:square;stroke-linejoin:miter;stroke-width:0.8;"/>
   </g>
  </g>
 </g>
 <defs>
  <clipPath id="pfd1398797b">
   <rect height="231.9" width="229.15" x="44.55" y="14.3"/>
  </clipPath>
 </defs>
</svg>
